<svg xmlns="http://www.w3.org/2000/svg" fill="none" viewBox="0 0 400 400" alt="Codeium" height="50"><path fill="#60D5C4" fill-rule="evenodd" d="M392.971 7.03 200 200l192.971 192.971A23.93 23.93 0 0 0 400 376V24a23.93 23.93 0 0 0-7.029-16.97" clip-rule="evenodd"></path><path fill="#71E9D8" fill-rule="evenodd" d="M392.971 7.03 200 200 7.03 7.03A23.93 23.93 0 0 1 24 0h352a23.93 23.93 0 0 1 16.971 7.03" clip-rule="evenodd"></path><path fill="#60D5C4" fill-rule="evenodd" d="M7.03 7.03 200 200 7.03 392.971A23.93 23.93 0 0 1 0 376V24A23.93 23.93 0 0 1 7.03 7.03" clip-rule="evenodd"></path><path fill="#71E9D8" fill-rule="evenodd" d="M392.971 392.971 200 200 7.03 392.971A23.93 23.93 0 0 0 24 400h352a23.93 23.93 0 0 0 16.971-7.029" clip-rule="evenodd"></path><rect width="300" height="300" x="50" y="50" fill="#09B6A2" rx="2"></rect><path fill="#fff" d="M120.8 290.12q-29.34 0-29.34-29.34v-41.94q0-10.98-10.8-10.98-3.96 0-6.66-2.52-2.52-2.52-2.52-6.48 0-4.14 2.52-6.66 2.7-2.52 6.66-2.52 10.8 0 10.8-10.98v-41.94q0-29.34 29.34-29.34 3.96 0 6.48 2.7t2.52 6.66-2.52 6.48-6.48 2.52q-10.98 0-10.98 10.98v41.94q0 6.3-1.44 11.34t-4.32 8.82q5.76 7.38 5.76 19.98v41.94q0 10.98 10.98 10.98 3.96 0 6.48 2.52t2.52 6.66q0 3.96-2.52 6.48-2.52 2.7-6.48 2.7m35.933-39.24q-5.04 0-8.82-3.6-3.6-3.78-3.6-8.82 0-5.22 3.6-8.82 3.78-3.78 8.82-3.78 5.22 0 8.82 3.78 3.6 3.6 3.6 8.82 0 5.04-3.6 8.82-3.6 3.6-8.82 3.6m42.89 0q-5.04 0-8.82-3.6-3.6-3.78-3.6-8.82 0-5.22 3.6-8.82 3.78-3.78 8.82-3.78 5.22 0 8.82 3.78 3.6 3.6 3.6 8.82 0 5.04-3.6 8.82-3.6 3.6-8.82 3.6m42.891 0q-5.04 0-8.82-3.6-3.6-3.78-3.6-8.82 0-5.22 3.6-8.82 3.78-3.78 8.82-3.78 5.22 0 8.82 3.78 3.6 3.6 3.6 8.82 0 5.04-3.6 8.82-3.6 3.6-8.82 3.6m36.05 39.24q-3.96 0-6.48-2.7-2.52-2.52-2.52-6.48 0-4.14 2.52-6.66t6.48-2.52q10.98 0 10.98-10.98v-41.94q0-12.6 5.76-19.98-2.88-3.78-4.32-8.82t-1.44-11.34v-41.94q0-10.98-10.98-10.98-3.96 0-6.48-2.52t-2.52-6.48 2.52-6.66 6.48-2.7q29.34 0 29.34 29.34v41.94q0 10.98 10.8 10.98 3.96 0 6.48 2.52 2.7 2.52 2.7 6.66 0 3.96-2.7 6.48-2.52 2.52-6.48 2.52-10.8 0-10.8 10.98v41.94q0 29.34-29.34 29.34"></path></svg>