<svg xmlns="http://www.w3.org/2000/svg" xml:space="preserve" id="omise" x="0" y="0" style="enable-background:new 0 0 500 141.1" version="1.1" viewBox="0 0 500 141.1">
  <g>
    <g>
      <path d="M204.6 103.2c-18.6 0-32.8-11.8-32.8-32.8s14.9-33.1 33.7-33.1 32.7 12 32.7 32.8S223 103.2 204.6 103.2zM204.9 52.9c-8.5 0-12.8 6.8-12.8 17.4s4.4 17.2 12.9 17.2 12.8-6.6 12.8-17.3S213.4 52.9 204.9 52.9L204.9 52.9zM323.2 64.9c0-7.4-3.2-10-8.4-10-3.7.1-7.3 1.5-10 4v3.6 38.8h-20.5V64.9c0-7.4-3.3-10-8.5-10-3.7 0-7.2 1.3-10 3.7v42.7h-20.5l.1-62.6h20.5v8c5.5-5.7 11.6-9.2 19.7-9.1 7.8 0 14.4 3.7 17.4 11.1 5.7-6.8 12.9-11 21.4-11 12.1 0 19.3 8.1 19.2 21.4l-.1 42.4H323L323.2 64.9zM364.3 30.8c-7.5 0-12.1-3.9-12.1-10.9 0-7.3 4.7-11 12.1-11s12.1 3.7 12.1 11.1C376.4 27 371.9 30.8 364.3 30.8zM354.1 38.8h20.5l-.1 62.6H354L354.1 38.8zM407.5 103.5c-8.5 0-19.7-1.9-26.2-5.5l4-14.8c7 3.7 14.7 5.7 22.6 5.9 5.6 0 8.4-1.7 8.4-5 0-3.6-3.5-4.8-10.5-6.4-14.4-2.9-23.5-8.1-23.5-20.2 0-11.6 10.1-19.8 27.3-19.8 8.2 0 19 2.4 25.1 5.4l-4.1 14.6c-7-3.6-15.4-5.6-21.3-5.6-5 0-7.6 1.6-7.6 4.6 0 3.3 3.8 4.7 10.6 6.1 14.5 3.2 23.3 8 23.2 20.4C435.6 94.3 425.8 103.5 407.5 103.5zM475.8 88.5c6.8 0 14-2.4 20.2-6l2 15.8c-6.2 3.2-15 5-24.1 5-20.9 0-34.5-11.6-34.5-32.4 0-20.2 13.9-33.4 33.5-33.3 17.5 0 27.1 10.5 27.1 26 0 3.3-.4 8.2-1.3 10.9l-39.2.6v.3C460.1 83.9 465.7 88.5 475.8 88.5zM481 63.7c0-7.4-3-11.8-9.4-11.9-7 0-11.3 6.1-12 13.1l21.4-.1V63.7L481 63.7z" style="fill:#2e374d"></path>
    </g>
    <g>
      <path d="M120.4,20.7c-27.5-27.5-72.2-27.5-99.7,0s-27.5,72.2,0,99.7s72.2,27.5,99.7,0l0,0    C147.9,92.9,147.9,48.2,120.4,20.7z M109.4,72.1l-37.3,37.3c-0.9,0.9-2.3,0.9-3.2,0l0,0L31.6,72.1c-0.9-0.9-0.9-2.3,0-3.2l0,0    l37.3-37.3c0.9-0.9,2.3-0.9,3.2,0l0,0l37.3,37.3C110.3,69.8,110.3,71.2,109.4,72.1L109.4,72.1L109.4,72.1z" style="fill:#2176ff"></path>
      <path d="M141.1 70.4c0-18.7-7.4-36.7-20.6-49.9C109.3 9.3 91.2 9.2 80 20.4L69 31.3c.4-.4 1-.6 1.5-.6.6 0 1.2.3 1.6.7l48.2 48.3c11.2 11.2 11.2 29.3 0 40.5C133.6 107 141.1 89.1 141.1 70.4zM20.6 120.1c11.2 11.2 29.3 11.2 40.6.1 0 0 4.5-4.7 10.9-11.1-.8.9-2.3.9-3.2.1l-.1-.1L31.7 72c-.5-.4-.7-1.1-.7-1.7s.2-1.2.6-1.6L20.8 79.5C9.6 90.7 9.5 108.8 20.6 120.1L20.6 120.1 20.6 120.1z" style="fill:#1a53f0"></path>
    </g>
  </g>
</svg>
